<?xml version="1.0" encoding="UTF-8"?>
<svg id="Layer_1" data-name="Layer 1" xmlns="http://www.w3.org/2000/svg" xmlns:xlink="http://www.w3.org/1999/xlink" viewBox="0 0 1920 1080">
  <defs>
    <style>
      .cls-1 {
        fill: url(#linear-gradient);
      }

      .cls-2 {
        fill: #fff;
      }

      .cls-3 {
        fill: #1e1d1d;
      }
    </style>
    <linearGradient id="linear-gradient" x1="-68.94" y1="540" x2="1988.94" y2="540" gradientUnits="userSpaceOnUse">
      <stop offset="0" stop-color="#24b2fb"/>
      <stop offset="1" stop-color="#17fe9b"/>
    </linearGradient>
  </defs>
  <rect class="cls-1" x="-68.94" y="-68.73" width="2057.89" height="1217.45"/>
  <g>
    <path class="cls-3" d="M1011.57,506.24c-1.01.43-2.18.64-3.49.64-1.14,0-2.31-.2-3.52-.59-1.21-.39-2.27-1.08-3.17-2.05-.91-.98-1.52-2.37-1.84-4.19h-6.83c.21,2.38.8,4.42,1.76,6.11.96,1.69,2.16,3.06,3.6,4.11,1.44,1.05,3.01,1.81,4.72,2.29,1.71.48,3.41.72,5.12.72s3.38-.26,5.01-.77c1.64-.51,3.12-1.26,4.45-2.24,1.33-.98,2.4-2.18,3.2-3.6.8-1.42,1.2-3.06,1.2-4.91,0-3.27-.92-5.73-2.77-7.39-1.85-1.65-4.36-2.76-7.52-3.33l-5.55-1.01c-1.78-.32-3.03-.87-3.76-1.65-.73-.78-1.09-1.67-1.09-2.67,0-1.21.35-2.15,1.04-2.83.69-.68,1.55-1.16,2.56-1.44,1.01-.28,1.96-.43,2.85-.43.96,0,1.92.16,2.88.48.96.32,1.79.9,2.51,1.73.71.84,1.19,2.05,1.44,3.65h6.93c-.25-2.84-1-5.16-2.27-6.96-1.26-1.79-2.9-3.12-4.91-3.97-2.01-.85-4.28-1.28-6.8-1.28s-4.62.45-6.61,1.33c-1.99.89-3.57,2.16-4.75,3.81-1.17,1.65-1.76,3.65-1.76,6,0,2.6.87,4.84,2.61,6.75,1.74,1.9,4.19,3.16,7.36,3.76l6.03,1.12c1.95.36,3.22.94,3.79,1.76.57.82.85,1.74.85,2.77,0,.93-.29,1.76-.88,2.51s-1.39,1.33-2.4,1.76Z"/>
    <path class="cls-3" d="M1027.34,504.21c0,2.31.32,4.08.96,5.31.64,1.23,1.59,2.05,2.85,2.48,1.26.43,2.82.64,4.67.64h5.33v-6.35h-3.15c-.82,0-1.47-.08-1.95-.24-.48-.16-.81-.45-.99-.88-.18-.43-.27-1.05-.27-1.87v-10.88h6.42v8.53c0,3.98.87,7.03,2.61,9.15,1.74,2.12,4.14,3.17,7.2,3.17,1.95,0,3.6-.4,4.93-1.2s2.39-1.87,3.17-3.23v3.79h7.47v-26.45h-7.47v13.65c0,2.24-.49,3.99-1.47,5.25-.98,1.26-2.36,1.89-4.13,1.89-1.64,0-2.86-.58-3.68-1.73-.82-1.15-1.23-2.82-1.23-4.99v-14.08h-13.83v-7.25h-7.47v7.25h-4.53v6.24h4.53v11.79Z"/>
    <path class="cls-3" d="M1090.22,474.24v15.36c-.89-1.28-2.06-2.28-3.5-2.99-1.44-.71-3.13-1.06-5.09-1.06-2.45,0-4.67.59-6.64,1.78-1.97,1.19-3.53,2.83-4.67,4.91-1.13,2.08-1.7,4.45-1.7,7.12s.57,5,1.7,7.12c1.14,2.11,2.7,3.78,4.67,4.98,1.97,1.21,4.19,1.82,6.64,1.82,2.17,0,3.94-.43,5.31-1.28,1.37-.86,2.46-1.85,3.28-2.99v3.63h7.46v-38.4h-7.46ZM1089.52,503.17c-.6,1.12-1.44,2-2.5,2.64-1.07.64-2.3.96-3.68.96s-2.57-.32-3.66-.96c-1.08-.64-1.93-1.52-2.53-2.64s-.91-2.39-.91-3.81.31-2.68.91-3.76c.6-1.09,1.45-1.95,2.53-2.59,1.09-.64,2.31-.96,3.66-.96s2.61.32,3.68.96c1.06.64,1.9,1.51,2.5,2.62.61,1.1.91,2.36.91,3.78s-.3,2.64-.91,3.76Z"/>
    <path class="cls-3" d="M1125.56,491.92c-1.14-1.97-2.72-3.53-4.75-4.67-2.03-1.13-4.35-1.7-6.99-1.7-2.77,0-5.2.6-7.3,1.81-2.1,1.21-3.73,2.88-4.88,5.01-1.16,2.14-1.73,4.57-1.73,7.31s.58,5.02,1.76,7.06c1.17,2.05,2.8,3.65,4.9,4.8,2.1,1.16,4.52,1.74,7.25,1.74,2.14,0,4.07-.4,5.79-1.2,1.73-.8,3.18-1.89,4.37-3.26,1.19-1.36,2.04-2.9,2.54-4.61h-7.63c-.46.89-1.12,1.61-1.97,2.16-.86.55-1.9.83-3.15.83s-2.41-.28-3.38-.83c-.98-.55-1.75-1.33-2.3-2.35-.44-.82-.7-1.75-.79-2.8h19.86c.07-.46.1-.91.1-1.36v-1.2c0-2.52-.57-4.77-1.7-6.74ZM1107.47,496.75c.15-.73.37-1.38.68-1.95.58-1.09,1.38-1.89,2.4-2.43,1.01-.53,2.12-.8,3.33-.8,1.6,0,2.94.47,4.02,1.42,1.09.94,1.68,2.19,1.79,3.76h-12.22Z"/>
    <path class="cls-3" d="M1136.25,498.99c0-2.24.58-3.99,1.73-5.25,1.15-1.26,2.62-1.89,4.4-1.89,1.88,0,3.26.58,4.13,1.73.87,1.16,1.31,2.82,1.31,4.99v14.08h7.47v-14.77c0-3.98-.89-7.03-2.67-9.15-1.78-2.11-4.34-3.17-7.68-3.17-1.99,0-3.72.41-5.2,1.23-1.48.82-2.64,1.92-3.49,3.31v-3.89h-7.47v26.45h7.47v-13.65Z"/>
    <path class="cls-3" d="M1173.9,492.43v-6.24h-6.51v-7.25h-7.47v7.25h-4.53v6.24h4.53v11.79c0,2.31.32,4.08.96,5.31.64,1.23,1.59,2.05,2.85,2.48,1.26.43,2.82.64,4.67.64h5.33v-6.35h-3.15c-.82,0-1.47-.08-1.95-.24-.48-.16-.81-.45-.99-.88-.18-.43-.27-1.05-.27-1.87v-10.88h6.51Z"/>
    <polygon class="cls-3" points="993.95 519.68 993.95 557.01 1017.73 557.01 1017.73 551.2 1001.41 551.2 1001.41 519.68 993.95 519.68"/>
    <path class="cls-3" d="M1044.12,536.55c-1.26-2.08-2.97-3.7-5.12-4.88-2.15-1.17-4.56-1.76-7.23-1.76s-5.03.59-7.2,1.76c-2.16,1.18-3.88,2.8-5.14,4.88-1.26,2.08-1.89,4.49-1.89,7.23s.63,5.1,1.89,7.2c1.26,2.1,2.97,3.73,5.12,4.91,2.15,1.17,4.56,1.75,7.22,1.75s5.08-.58,7.23-1.75c2.15-1.18,3.86-2.81,5.12-4.91,1.26-2.1,1.89-4.5,1.89-7.2s-.63-5.15-1.89-7.23ZM1037.45,547.89c-.58,1.1-1.37,1.92-2.37,2.48-1,.55-2.1.82-3.31.82s-2.31-.27-3.3-.82c-1-.56-1.79-1.38-2.38-2.48-.58-1.11-.88-2.47-.88-4.11s.31-3.05.91-4.13c.61-1.09,1.41-1.91,2.4-2.46,1-.55,2.1-.82,3.31-.82s2.25.27,3.22.82c.98.55,1.77,1.38,2.38,2.48.6,1.11.9,2.47.9,4.11s-.29,3-.88,4.11Z"/>
    <path class="cls-3" d="M1074.85,550.77c-.57,0-1.03-.09-1.38-.27-.36-.18-.62-.6-.78-1.25-.16-.66-.24-1.67-.24-3.02v-5.49c0-3.48-1.14-6.16-3.44-8.03-2.29-1.86-5.43-2.8-9.41-2.8-2.03,0-3.88.35-5.55,1.04-1.67.7-3.03,1.7-4.08,3.02-1.04,1.31-1.68,2.91-1.89,4.8h6.99c.25-1.14.8-1.92,1.65-2.35.85-.43,1.81-.64,2.88-.64,1.56,0,2.85.39,3.87,1.17,1.01.79,1.52,2.05,1.52,3.79v1.28c-.68-.21-1.56-.43-2.64-.64-1.09-.21-2.39-.32-3.92-.32-3.2,0-5.79.76-7.76,2.27-1.98,1.51-2.96,3.63-2.96,6.37,0,1.46.38,2.79,1.14,4,.77,1.21,1.86,2.17,3.28,2.88,1.43.71,3.11,1.06,5.07,1.06s3.56-.39,5.01-1.17c1.46-.78,2.65-1.78,3.58-2.98.6,1.38,1.54,2.32,2.82,2.79,1.28.48,2.88.73,4.8.73h1.66v-6.24h-.22ZM1063.44,549.46c-.5.8-1.11,1.42-1.84,1.87-.73.44-1.61.66-2.64.66-1.14,0-2.04-.27-2.72-.82-.68-.56-1.01-1.26-1.01-2.11,0-1.03.39-1.82,1.17-2.37.78-.55,1.72-.83,2.83-.83.96,0,1.91.1,2.85.29.94.2,1.77.4,2.48.62-.25.99-.62,1.89-1.12,2.69Z"/>
    <path class="cls-3" d="M1086.68,531.14c-1.48.82-2.64,1.92-3.49,3.31v-3.89h-7.47v26.45h7.47v-13.65c0-2.24.58-3.99,1.73-5.25,1.15-1.26,2.62-1.89,4.4-1.89,1.88,0,3.26.58,4.13,1.73.87,1.16,1.31,2.82,1.31,4.99v14.08h7.47v-14.77c0-3.98-.89-7.03-2.67-9.15-1.78-2.11-4.34-3.17-7.68-3.17-1.99,0-3.73.41-5.2,1.23Z"/>
    <polygon class="cls-2" points="1001.41 564.05 993.95 564.05 993.95 601.38 1017.73 601.38 1017.73 595.56 1001.41 595.56 1001.41 564.05"/>
    <path class="cls-2" d="M1044.12,580.92c-1.26-2.08-2.97-3.71-5.12-4.88-2.15-1.17-4.56-1.76-7.23-1.76s-5.03.59-7.2,1.76c-2.16,1.17-3.88,2.8-5.14,4.88-1.26,2.08-1.89,4.49-1.89,7.23s.63,5.1,1.89,7.2c1.26,2.1,2.97,3.73,5.12,4.9,2.15,1.18,4.56,1.76,7.22,1.76s5.08-.58,7.23-1.76c2.15-1.17,3.86-2.8,5.12-4.9,1.26-2.1,1.89-4.5,1.89-7.2s-.63-5.15-1.89-7.23ZM1037.45,592.25c-.58,1.11-1.37,1.93-2.37,2.48-1,.56-2.1.83-3.31.83s-2.31-.27-3.3-.83c-1-.55-1.79-1.37-2.38-2.48-.58-1.1-.88-2.47-.88-4.1s.31-3.05.91-4.14c.61-1.08,1.41-1.9,2.4-2.45,1-.55,2.1-.83,3.31-.83s2.25.28,3.22.83c.98.55,1.77,1.38,2.38,2.48.6,1.1.9,2.47.9,4.11s-.29,3-.88,4.1Z"/>
    <path class="cls-2" d="M1057.41,567.67h-7.47v7.25h-4.53v6.24h4.53v11.79c0,2.31.32,4.08.96,5.31.64,1.23,1.59,2.05,2.85,2.48,1.26.43,2.82.64,4.67.64h5.33v-6.35h-3.15c-.82,0-1.47-.08-1.95-.24-.48-.16-.81-.45-.99-.88-.18-.43-.27-1.05-.27-1.87v-10.88h6.51v-6.24h-6.51v-7.25Z"/>
    <path class="cls-2" d="M1077.32,594.79c-.48-.16-.81-.45-.99-.88-.18-.43-.27-1.05-.27-1.87v-10.88h6.51v-6.24h-6.51v-7.25h-7.47v7.25h-5.19v6.24h5.19v11.79c0,2.31.32,4.08.96,5.31.64,1.23,1.59,2.05,2.85,2.48,1.26.43,2.82.64,4.67.64h5.33v-6.35h-3.15c-.82,0-1.47-.08-1.95-.24Z"/>
    <path class="cls-2" d="M1107.17,580.65c-1.14-1.97-2.72-3.52-4.75-4.66-2.02-1.14-4.35-1.71-6.98-1.71-2.78,0-5.21.61-7.31,1.81-2.1,1.21-3.72,2.88-4.88,5.02-1.15,2.13-1.73,4.57-1.73,7.3s.58,5.03,1.76,7.07c1.17,2.04,2.81,3.64,4.9,4.8,2.1,1.15,4.52,1.73,7.26,1.73,2.13,0,4.06-.4,5.78-1.2,1.73-.8,3.18-1.88,4.38-3.25,1.19-1.37,2.03-2.91,2.53-4.61h-7.63c-.46.89-1.12,1.61-1.97,2.16-.85.55-1.9.82-3.15.82s-2.4-.27-3.38-.82-1.75-1.34-2.3-2.35c-.44-.82-.7-1.76-.78-2.8h19.85c.07-.46.11-.91.11-1.36v-1.2c0-2.52-.57-4.77-1.71-6.75ZM1089.08,585.48c.15-.73.37-1.38.68-1.95.58-1.08,1.38-1.89,2.4-2.42,1.01-.54,2.12-.8,3.33-.8,1.6,0,2.94.47,4.03,1.41,1.08.94,1.68,2.2,1.78,3.76h-12.22Z"/>
    <path class="cls-2" d="M1120.53,575.8c-1.07.76-1.96,1.8-2.67,3.12v-4h-7.47v26.45h7.47v-11.2c0-1.92.19-3.55.56-4.88.37-1.33.97-2.34,1.79-3.01.82-.67,1.88-1.01,3.2-1.01h4v-6.61h-3.25c-1.35,0-2.56.38-3.63,1.15Z"/>
    <path class="cls-2" d="M1150.48,574.92l-7.31,18.03-7.04-18.03h-8.11l10.98,26.79-1.22,2.7c-.23.54-3.54,7.02-3.75,7.38h7.9l16.54-36.87h-8Z"/>
    <path class="cls-3" d="M959.3,507.09l-104.17-44.96c-.84-.36-1.83-.39-2.76,0l-104.17,44.96c-.78.33-1.45.96-1.82,1.82-.76,1.76.05,3.82,1.82,4.57l44.86,19.37v58.67c0,1.24.67,2.46,1.86,3.08,20.18,10.72,40.1,16.16,59.75,16.22,19.56.05,38.8-5.28,57.71-16.11,1.22-.54,2.06-1.76,2.06-3.18v-58.68l20.79-8.96v34.62h6.98v-37.64l17.09-7.39c.79-.32,1.46-.95,1.82-1.82.77-1.75-.05-3.81-1.82-4.57ZM938.24,515.01l-83.99-12.92c-1.89-.27-3.67,1.03-3.96,2.94-.27,1.9,1.03,3.68,2.93,3.95l72.99,11.23-16.44,7.09c-.13.05-.26.11-.39.17l-55.63,24-55.63-24c-.13-.05-.26-.12-.39-.17l-39.38-16.99,95.39-41.18,95.38,41.18-10.88,4.7Z"/>
    <rect class="cls-2" x="1158.48" y="593.57" width="7.87" height="7.87"/>
    <path class="cls-3" d="M942.21,555.81c-1.14-.29-2.34-.44-3.57-.44s-2.32.14-3.41.41c-6.4,1.53-11.15,7.28-11.15,14.14,0,8.04,6.52,14.56,14.56,14.56s14.55-6.52,14.55-14.56c0-6.8-4.67-12.52-10.98-14.11ZM944.81,578.52l-6.17-3.25-6.18,3.25,1.18-6.88-4.99-4.87,6.9-1,3.09-6.26,3.09,6.26,6.9,1-5,4.87,1.18,6.88Z"/>
  </g>
</svg>