<?xml version="1.0" encoding="UTF-8"?>
<svg id="Layer_2" data-name="Layer 2" xmlns="http://www.w3.org/2000/svg" xmlns:xlink="http://www.w3.org/1999/xlink" viewBox="0 0 1012.96 355.03">
  <defs>
    <style>
      .cls-1 {
        fill: url(#linear-gradient-8);
      }

      .cls-2 {
        fill: url(#linear-gradient-7);
      }

      .cls-3 {
        fill: url(#linear-gradient-5);
      }

      .cls-4 {
        fill: url(#linear-gradient-6);
      }

      .cls-5 {
        fill: url(#linear-gradient-4);
      }

      .cls-6 {
        fill: url(#linear-gradient-3);
      }

      .cls-7 {
        fill: url(#linear-gradient-2);
      }

      .cls-8 {
        fill: url(#linear-gradient);
      }

      .cls-9 {
        fill: #fff;
      }
    </style>
    <linearGradient id="linear-gradient" x1="292.98" y1="189.12" x2="1147.19" y2="462.97" gradientUnits="userSpaceOnUse">
      <stop offset="0" stop-color="#24b2fb"/>
      <stop offset="1" stop-color="#17fe9b"/>
    </linearGradient>
    <linearGradient id="linear-gradient-2" x1="296.82" y1="177.35" x2="1150.9" y2="451.16" xlink:href="#linear-gradient"/>
    <linearGradient id="linear-gradient-3" x1="304.73" y1="152.47" x2="1158.94" y2="426.32" xlink:href="#linear-gradient"/>
    <linearGradient id="linear-gradient-4" x1="296.71" y1="135.73" x2="1171.76" y2="416.27" xlink:href="#linear-gradient"/>
    <linearGradient id="linear-gradient-5" x1="310.82" y1="133.56" x2="1164.99" y2="407.4" xlink:href="#linear-gradient"/>
    <linearGradient id="linear-gradient-6" x1="316.08" y1="117.07" x2="1170.29" y2="390.92" xlink:href="#linear-gradient"/>
    <linearGradient id="linear-gradient-7" x1="318.44" y1="109.71" x2="1172.65" y2="383.56" xlink:href="#linear-gradient"/>
    <linearGradient id="linear-gradient-8" x1="319.15" y1="107.48" x2="1173.36" y2="381.34" xlink:href="#linear-gradient"/>
  </defs>
  <g id="Layer_1-2" data-name="Layer 1">
    <g>
      <path class="cls-9" d="M628.59,105.1c-2.4,1.01-5.16,1.52-8.27,1.52-2.7,0-5.47-.46-8.33-1.39-2.86-.93-5.37-2.55-7.51-4.86-2.15-2.31-3.6-5.62-4.36-9.91h-16.16c.51,5.64,1.89,10.46,4.17,14.46,2.27,4,5.11,7.24,8.52,9.72,3.41,2.48,7.13,4.29,11.17,5.43,4.04,1.14,8.08,1.7,12.12,1.7s8-.61,11.87-1.83c3.87-1.22,7.39-2.99,10.54-5.3,3.16-2.31,5.68-5.16,7.58-8.52,1.89-3.37,2.84-7.24,2.84-11.62,0-7.74-2.19-13.57-6.57-17.49-4.38-3.91-10.31-6.54-17.8-7.89l-13.13-2.4c-4.21-.76-7.18-2.06-8.9-3.91-1.73-1.85-2.59-3.96-2.59-6.31,0-2.86.82-5.09,2.46-6.69,1.64-1.6,3.66-2.73,6.06-3.41,2.4-.67,4.65-1.01,6.76-1.01,2.27,0,4.55.38,6.82,1.14,2.27.76,4.25,2.13,5.93,4.1,1.68,1.98,2.82,4.86,3.41,8.65h16.42c-.59-6.73-2.38-12.23-5.37-16.48-2.99-4.25-6.86-7.39-11.62-9.41-4.76-2.02-10.12-3.03-16.1-3.03s-10.94,1.05-15.66,3.16c-4.72,2.11-8.46,5.11-11.24,9.03-2.78,3.91-4.17,8.65-4.17,14.21,0,6.15,2.06,11.47,6.19,15.97,4.12,4.5,9.93,7.47,17.43,8.9l14.27,2.65c4.63.84,7.62,2.23,8.97,4.17,1.35,1.94,2.02,4.13,2.02,6.57,0,2.19-.69,4.17-2.08,5.94-1.39,1.77-3.28,3.16-5.68,4.17Z"/>
      <path class="cls-9" d="M665.92,100.31c0,5.47.76,9.66,2.27,12.56,1.52,2.9,3.77,4.86,6.76,5.87,2.99,1.01,6.67,1.51,11.05,1.51h12.63v-15.03h-7.45c-1.94,0-3.47-.19-4.61-.57-1.14-.38-1.92-1.07-2.34-2.08-.42-1.01-.63-2.48-.63-4.42v-25.76h15.2v20.2c0,9.43,2.06,16.65,6.19,21.66,4.12,5.01,9.81,7.51,17.05,7.51,4.63,0,8.52-.95,11.68-2.84,3.16-1.89,5.66-4.44,7.51-7.64v8.97h17.68v-62.63h-17.68v32.33c0,5.3-1.16,9.45-3.47,12.44-2.32,2.99-5.58,4.48-9.79,4.48-3.87,0-6.78-1.37-8.71-4.1-1.94-2.73-2.9-6.67-2.9-11.81v-33.34h-32.75v-17.17h-17.68v17.17h-10.73v14.77h10.73v27.91Z"/>
      <path class="cls-9" d="M814.81,29.34v36.37c-2.11-3.03-4.88-5.4-8.29-7.08-3.41-1.68-7.41-2.51-12.05-2.51-5.8,0-11.06,1.4-15.72,4.21-4.66,2.82-8.36,6.7-11.06,11.63-2.68,4.93-4.03,10.54-4.03,16.86s1.35,11.84,4.03,16.86c2.7,5,6.39,8.95,11.06,11.79,4.66,2.86,9.92,4.31,15.72,4.31,5.14,0,9.33-1.02,12.57-3.03,3.24-2.04,5.82-4.38,7.77-7.08v8.6h17.66V29.34h-17.66ZM813.16,97.84c-1.42,2.65-3.41,4.74-5.92,6.25-2.53,1.52-5.45,2.27-8.71,2.27s-6.09-.76-8.67-2.27c-2.56-1.52-4.57-3.6-5.99-6.25-1.42-2.65-2.15-5.66-2.15-9.02s.73-6.35,2.15-8.9c1.42-2.58,3.43-4.62,5.99-6.13,2.58-1.52,5.47-2.27,8.67-2.27s6.18.76,8.71,2.27c2.51,1.52,4.5,3.58,5.92,6.2,1.44,2.6,2.15,5.59,2.15,8.95s-.71,6.25-2.15,8.9Z"/>
      <path class="cls-9" d="M898.49,71.2c-2.7-4.66-6.44-8.36-11.25-11.06-4.81-2.68-10.3-4.03-16.55-4.03-6.56,0-12.31,1.42-17.28,4.29-4.97,2.87-8.83,6.82-11.55,11.86-2.75,5.07-4.1,10.82-4.1,17.31s1.37,11.89,4.17,16.72c2.77,4.85,6.63,8.64,11.6,11.37,4.97,2.75,10.7,4.12,17.17,4.12,5.07,0,9.64-.95,13.71-2.84,4.1-1.89,7.53-4.48,10.35-7.72,2.82-3.22,4.83-6.87,6.01-10.92h-18.07c-1.09,2.11-2.65,3.81-4.66,5.11-2.04,1.3-4.5,1.97-7.46,1.97s-5.71-.66-8-1.97c-2.32-1.3-4.14-3.15-5.45-5.56-1.04-1.94-1.66-4.14-1.87-6.63h47.02c.17-1.09.24-2.15.24-3.22v-2.84c0-5.97-1.35-11.29-4.03-15.96ZM855.66,82.64c.36-1.73.88-3.27,1.61-4.62,1.37-2.58,3.27-4.48,5.68-5.75,2.39-1.25,5.02-1.89,7.88-1.89,3.79,0,6.96,1.11,9.52,3.36,2.58,2.23,3.98,5.19,4.24,8.9h-28.93Z"/>
      <path class="cls-9" d="M923.8,87.93c0-5.3,1.37-9.45,4.1-12.44,2.73-2.99,6.21-4.48,10.42-4.48,4.46,0,7.72,1.37,9.79,4.1,2.06,2.74,3.09,6.67,3.09,11.81v33.34h17.68v-34.98c0-9.43-2.11-16.65-6.31-21.66-4.21-5.01-10.27-7.51-18.18-7.51-4.72,0-8.82.97-12.31,2.9-3.49,1.94-6.25,4.55-8.27,7.83v-9.22h-17.68v62.63h17.68v-32.33Z"/>
      <path class="cls-9" d="M1012.96,72.4v-14.77h-15.41v-17.17h-17.68v17.17h-10.73v14.77h10.73v27.91c0,5.47.76,9.66,2.27,12.56,1.52,2.9,3.77,4.86,6.76,5.87,2.99,1.01,6.67,1.51,11.05,1.51h12.63v-15.03h-7.45c-1.94,0-3.47-.19-4.61-.57-1.14-.38-1.92-1.07-2.34-2.08-.42-1.01-.63-2.48-.63-4.42v-25.76h15.41Z"/>
      <polygon class="cls-9" points="586.86 136.92 586.86 225.31 643.18 225.31 643.18 211.55 604.54 211.55 604.54 136.92 586.86 136.92"/>
      <path class="cls-9" d="M705.66,176.88c-2.98-4.93-7.03-8.76-12.12-11.55-5.09-2.77-10.8-4.17-17.12-4.17s-11.91,1.4-17.05,4.17c-5.11,2.79-9.19,6.63-12.17,11.55-2.98,4.93-4.48,10.63-4.48,17.12s1.49,12.08,4.48,17.05c2.98,4.97,7.03,8.83,12.12,11.63,5.09,2.77,10.8,4.14,17.1,4.14s12.03-1.37,17.12-4.14c5.09-2.79,9.14-6.65,12.12-11.63,2.98-4.97,4.48-10.66,4.48-17.05s-1.49-12.19-4.48-17.12ZM689.86,203.73c-1.37,2.6-3.24,4.55-5.61,5.87-2.37,1.3-4.97,1.94-7.84,1.94s-5.47-.64-7.81-1.94c-2.37-1.33-4.24-3.27-5.64-5.87-1.37-2.63-2.08-5.85-2.08-9.73s.73-7.22,2.15-9.78c1.44-2.58,3.34-4.52,5.68-5.82,2.37-1.3,4.97-1.94,7.84-1.94s5.33.64,7.62,1.94c2.32,1.3,4.19,3.27,5.64,5.87,1.42,2.63,2.13,5.85,2.13,9.73s-.69,7.1-2.08,9.73Z"/>
      <path class="cls-9" d="M778.42,210.55c-1.35,0-2.44-.21-3.27-.64-.85-.43-1.47-1.42-1.85-2.96-.38-1.56-.57-3.95-.57-7.15v-13c0-8.24-2.7-14.59-8.15-19.01-5.42-4.4-12.86-6.63-22.28-6.63-4.81,0-9.19.83-13.14,2.46-3.95,1.66-7.17,4.03-9.66,7.15-2.46,3.1-3.98,6.89-4.47,11.37h16.55c.59-2.7,1.89-4.55,3.91-5.56,2.01-1.02,4.29-1.52,6.82-1.52,3.69,0,6.75.92,9.16,2.77,2.39,1.87,3.6,4.85,3.6,8.97v3.03c-1.61-.5-3.69-1.02-6.25-1.52-2.58-.5-5.66-.76-9.28-.76-7.58,0-13.71,1.8-18.37,5.37-4.69,3.58-7.01,8.6-7.01,15.08,0,3.46.9,6.61,2.7,9.47,1.82,2.86,4.4,5.14,7.77,6.82,3.39,1.68,7.36,2.51,12,2.51s8.43-.92,11.86-2.77c3.46-1.85,6.27-4.21,8.48-7.06,1.42,3.27,3.65,5.49,6.68,6.61,3.03,1.14,6.82,1.73,11.37,1.73h3.93v-14.77h-.52ZM751.4,207.44c-1.18,1.89-2.63,3.36-4.36,4.43-1.73,1.04-3.81,1.56-6.25,1.56-2.7,0-4.83-.64-6.44-1.94-1.61-1.33-2.39-2.98-2.39-5,0-2.44.92-4.31,2.77-5.61,1.85-1.3,4.07-1.97,6.7-1.97,2.27,0,4.52.24,6.75.69,2.23.47,4.19.95,5.87,1.47-.59,2.34-1.47,4.47-2.65,6.37Z"/>
      <path class="cls-9" d="M806.42,164.07c-3.49,1.94-6.25,4.55-8.27,7.83v-9.22h-17.68v62.63h17.68v-32.33c0-5.3,1.37-9.45,4.1-12.44,2.73-2.99,6.21-4.48,10.42-4.48,4.46,0,7.72,1.37,9.79,4.1,2.06,2.74,3.09,6.67,3.09,11.81v33.34h17.68v-34.98c0-9.43-2.11-16.65-6.31-21.66-4.21-5.01-10.27-7.51-18.18-7.51-4.72,0-8.82.97-12.31,2.9Z"/>
      <polygon class="cls-8" points="604.54 241.97 586.86 241.97 586.86 330.36 643.18 330.36 643.18 316.6 604.54 316.6 604.54 241.97"/>
      <path class="cls-7" d="M705.66,281.93c-2.98-4.92-7.03-8.78-12.12-11.55-5.09-2.77-10.8-4.17-17.12-4.17s-11.91,1.4-17.05,4.17c-5.11,2.77-9.19,6.63-12.17,11.55-2.98,4.93-4.48,10.63-4.48,17.12s1.49,12.08,4.48,17.05c2.98,4.97,7.03,8.83,12.12,11.6,5.09,2.79,10.8,4.17,17.1,4.17s12.03-1.37,17.12-4.17c5.09-2.77,9.14-6.63,12.12-11.6,2.98-4.97,4.48-10.66,4.48-17.05s-1.49-12.19-4.48-17.12ZM689.86,308.76c-1.37,2.63-3.24,4.57-5.61,5.87-2.37,1.33-4.97,1.97-7.84,1.97s-5.47-.64-7.81-1.97c-2.37-1.3-4.24-3.24-5.64-5.87-1.37-2.6-2.08-5.85-2.08-9.71s.73-7.22,2.15-9.8c1.44-2.56,3.34-4.5,5.68-5.8,2.37-1.3,4.97-1.97,7.84-1.97s5.33.66,7.62,1.97c2.32,1.3,4.19,3.27,5.64,5.87,1.42,2.6,2.13,5.85,2.13,9.73s-.69,7.1-2.08,9.71Z"/>
      <path class="cls-6" d="M737.12,250.56h-17.68v17.17h-10.73v14.77h10.73v27.91c0,5.47.76,9.66,2.27,12.56,1.52,2.9,3.77,4.86,6.76,5.87,2.99,1.01,6.67,1.51,11.05,1.51h12.63v-15.03h-7.45c-1.94,0-3.47-.19-4.61-.57-1.14-.38-1.92-1.07-2.34-2.08-.42-1.01-.63-2.48-.63-4.42v-25.76h15.41v-14.77h-15.41v-17.17Z"/>
      <path class="cls-5" d="M784.27,314.77c-1.14-.38-1.92-1.07-2.34-2.08-.42-1.01-.63-2.48-.63-4.42v-25.76h15.41v-14.77h-15.41v-17.17h-17.68v17.17h-12.28v14.77h12.28v27.91c0,5.47.76,9.66,2.27,12.56,1.52,2.9,3.77,4.86,6.76,5.87,2.99,1.01,6.67,1.51,11.05,1.51h12.63v-15.03h-7.45c-1.94,0-3.47-.19-4.61-.57Z"/>
      <path class="cls-3" d="M854.95,281.3c-2.7-4.66-6.44-8.33-11.25-11.03-4.78-2.7-10.3-4.05-16.53-4.05-6.58,0-12.34,1.44-17.31,4.29-4.97,2.86-8.81,6.82-11.55,11.89-2.72,5.04-4.1,10.82-4.1,17.28s1.37,11.91,4.17,16.74c2.77,4.83,6.65,8.62,11.6,11.37,4.97,2.72,10.7,4.1,17.19,4.1,5.04,0,9.61-.95,13.69-2.84,4.1-1.89,7.53-4.45,10.37-7.7,2.82-3.24,4.81-6.89,5.99-10.92h-18.07c-1.09,2.11-2.65,3.81-4.66,5.11-2.01,1.3-4.5,1.94-7.46,1.94s-5.68-.64-8-1.94-4.14-3.17-5.45-5.56c-1.04-1.94-1.66-4.17-1.85-6.63h47c.17-1.09.26-2.15.26-3.22v-2.84c0-5.97-1.35-11.29-4.05-15.98ZM812.11,292.73c.35-1.73.88-3.27,1.61-4.62,1.37-2.56,3.27-4.47,5.68-5.73,2.39-1.28,5.02-1.89,7.88-1.89,3.79,0,6.96,1.11,9.54,3.34,2.56,2.23,3.98,5.21,4.21,8.9h-28.93Z"/>
      <path class="cls-4" d="M886.58,269.82c-2.53,1.81-4.63,4.27-6.31,7.39v-9.47h-17.68v62.63h17.68v-26.52c0-4.55.44-8.4,1.33-11.55.88-3.16,2.29-5.53,4.23-7.13,1.93-1.6,4.46-2.4,7.58-2.4h9.47v-15.66h-7.7c-3.2,0-6.06.91-8.59,2.71Z"/>
      <path class="cls-2" d="M957.49,267.73l-17.3,42.68-16.67-42.68h-19.19l26,63.44-2.9,6.38c-.54,1.29-8.38,16.62-8.88,17.47h18.71l39.16-87.3h-18.94Z"/>
      <path class="cls-9" d="M504.82,107.12L258.17.67c-1.99-.85-4.33-.92-6.54,0L4.98,107.12c-1.85.78-3.43,2.27-4.31,4.31-1.8,4.17.12,9.04,4.31,10.82l106.22,45.86v138.92c0,2.94,1.59,5.82,4.4,7.29,47.78,25.38,94.95,38.26,141.47,38.41,46.31.12,91.87-12.5,136.64-38.14,2.89-1.28,4.88-4.17,4.88-7.53v-138.94l49.23-21.22v81.97h16.53v-89.12l40.47-17.5c1.87-.76,3.46-2.25,4.31-4.31,1.82-4.14-.12-9.02-4.31-10.82ZM454.96,125.87l-198.87-30.59c-4.48-.64-8.69,2.44-9.38,6.96-.64,4.5,2.44,8.71,6.94,9.35l172.82,26.59-38.93,16.79c-.31.12-.62.26-.92.4l-131.72,56.83-131.72-56.83c-.31-.12-.62-.28-.92-.4L29.02,114.75,254.88,17.24l225.84,97.51-25.76,11.13Z"/>
      <rect class="cls-1" x="976.43" y="311.88" width="18.63" height="18.63"/>
      <path class="cls-9" d="M464.36,222.48c-2.7-.69-5.54-1.04-8.45-1.04s-5.49.33-8.07.97c-15.15,3.62-26.4,17.24-26.4,33.48,0,19.04,15.44,34.47,34.47,34.47s34.45-15.44,34.45-34.47c0-16.1-11.06-29.64-26-33.41ZM470.51,276.25l-14.61-7.7-14.63,7.7,2.79-16.29-11.82-11.53,16.34-2.37,7.32-14.82,7.32,14.82,16.34,2.37-11.84,11.53,2.79,16.29Z"/>
    </g>
  </g>
</svg>