<?xml version="1.0" encoding="UTF-8"?>
<svg id="Layer_2" data-name="Layer 2" xmlns="http://www.w3.org/2000/svg" viewBox="0 0 1113.59 770.47">
  <g id="Layer_1-2" data-name="Layer 1">
    <g>
      <path d="M1102.68,233.98L563.92,1.46c-4.34-1.86-9.46-2.02-14.27,0L10.89,233.98c-4.03,1.71-7.5,4.96-9.41,9.41-3.93,9.1.26,19.76,9.41,23.64l232.01,100.18v303.44c0,6.41,3.47,12.72,9.62,15.93,104.37,55.44,207.39,83.58,309.02,83.89,101.16.26,200.67-27.31,298.47-83.32,6.31-2.79,10.65-9.1,10.65-16.45v-303.49l107.52-46.34v179.05h36.1v-194.67l88.39-38.22c4.09-1.66,7.55-4.91,9.41-9.41,3.98-9.05-.26-19.7-9.41-23.64ZM993.76,274.95l-434.39-66.82c-9.77-1.4-18.98,5.33-20.48,15.21-1.4,9.83,5.33,19.03,15.15,20.43l377.5,58.08-85.03,36.67c-.67.26-1.34.57-2.02.88l-287.71,124.13-287.71-124.13c-.67-.26-1.34-.62-2.02-.88L63.38,250.64,556.73,37.66l493.3,212.98-56.27,24.31Z"/>
      <path d="M1014.29,485.96c-5.9-1.5-12.1-2.28-18.46-2.28s-12,.72-17.64,2.12c-33.1,7.91-57.67,37.65-57.67,73.13,0,41.58,33.72,75.3,75.3,75.3s75.25-33.72,75.25-75.3c0-35.17-24.15-64.75-56.79-72.98ZM1027.74,603.41l-31.91-16.81-31.96,16.81,6.1-35.58-25.81-25.19,35.69-5.17,15.98-32.38,15.98,32.38,35.69,5.17-25.86,25.19,6.1,35.58Z"/>
    </g>
  </g>
</svg>